<?xml version="1.0" encoding="UTF-8"?>
<!-- Created with Inkscape (http://www.inkscape.org/) -->
<svg width="10.583mm" height="10.583mm" version="1.1" viewBox="0 0 10.583 10.583" xmlns="http://www.w3.org/2000/svg">
 <g transform="translate(.76704 -67.04)" stroke-linecap="round">
  <rect x="-.76704" y="67.04" width="10.583" height="10.583" rx=".77453" ry=".77453" fill="#1f1f1f" stroke-width="80"/>
  <path d="m1.2734 68.615c-0.13357-2.22e-4 -0.26577 0.05982-0.35295 0.16115-0.076519 0.08657-0.11688 0.20268-0.11385 0.31788 9.969e-5 0.15293-2.0073e-4 0.30586 1.5264e-4 0.45878 0.002344 0.12914 0.063003 0.25518 0.16115 0.33887 0.08761 0.07653 0.20448 0.11702 0.32052 0.11393h6.4869c0.13358 2.32e-4 0.26577-0.05983 0.35295-0.16116 0.07561-0.08574 0.11681-0.20032 0.11384-0.31454-9.97e-5 -0.15404 2.008e-4 -0.30808-1.526e-4 -0.46212-0.00234-0.12914-0.063003-0.25518-0.16115-0.33887-0.08761-0.07653-0.20448-0.11702-0.32052-0.11393h-6.4869zm0 3.0195c-0.13936-8.84e-4 -0.27718 0.06498-0.36373 0.17425-0.070038 0.0864-0.10619 0.19832-0.10307 0.30924 9.967e-5 0.15209-2.007e-4 0.30419 1.5264e-4 0.45628 0.002343 0.12914 0.063003 0.25518 0.16115 0.33887 0.08761 0.07653 0.20448 0.11702 0.32052 0.11393h6.4869c0.13358 2.3e-4 0.26577-0.05983 0.35295-0.16116 0.07561-0.08574 0.11681-0.20032 0.11384-0.31454-9.97e-5 -0.15404 2.007e-4 -0.30809-1.526e-4 -0.46213-0.00252-0.13723-0.070227-0.27101-0.17852-0.35514-0.084742-0.06727-0.19344-0.10262-0.30148-0.09961h-6.4886zm0 3.0215c-0.13357-2.23e-4 -0.26577 0.05982-0.35295 0.16115-0.07652 0.08657-0.11688 0.20268-0.11385 0.31788 5.717e-5 0.15193-1.148e-4 0.30386 8.681e-5 0.45579 0.00178 0.13634 0.067368 0.26994 0.17414 0.35472 0.08541 0.06946 0.19601 0.10613 0.30593 0.10304h6.4886c0.13564 9.67e-4 0.26963-0.06164 0.35655-0.16564 0.073744-0.08633 0.11335-0.20028 0.11024-0.31368-9.97e-5 -0.15348 2.007e-4 -0.30697-1.526e-4 -0.46045-0.00234-0.12914-0.063003-0.25518-0.16115-0.33887-0.08761-0.07653-0.20448-0.11702-0.32052-0.11393h-6.4869z" fill="#f9f9ff" stroke-width="80"/>
 </g>
</svg>
